<?xml version="1.0" encoding="utf-8"?>
<!-- Generator: Adobe Illustrator 21.1.0, SVG Export Plug-In . SVG Version: 6.00 Build 0)  -->
<svg version="1.1" id="Django_1_" xmlns="http://www.w3.org/2000/svg" xmlns:xlink="http://www.w3.org/1999/xlink" x="0px" y="0px"
	 viewBox="0 0 436.5 152.5" style="enable-background:new 0 0 436.5 152.5;" xml:space="preserve">
<style type="text/css">
	.st0{fill:#092E20;}
</style>
<path id="Django" class="st0" d="M51.5,0h23.9v110.5c-12.2,2.3-21.2,3.3-31,3.3C15.2,113.7,0,100.6,0,75.3C0,51,16.1,35.2,41.1,35.2
	c3.9,0,6.8,0.3,10.4,1.2C51.5,36.4,51.5,0,51.5,0z M51.5,55.6c-2.8-0.9-5.1-1.2-8.1-1.2c-12.1,0-19.1,7.4-19.1,20.5
	c0,12.7,6.7,19.7,18.9,19.7c2.6,0,4.8-0.2,8.2-0.6V55.6z M113.3,36.9v55.3c0,19.1-1.4,28.2-5.6,36.1c-3.9,7.6-9,12.4-19.5,17.7
	L66,135.5c10.5-5,15.7-9.3,18.9-16c3.4-6.8,4.5-14.7,4.5-35.5V36.9H113.3z M89.4,0.1h23.9v24.5H89.4V0.1z M127.7,42.3
	c10.5-5,20.6-7.1,31.6-7.1c12.2,0,20.3,3.3,23.9,9.6c2,3.6,2.6,8.2,2.6,18.1v48.5c-10.7,1.6-24.2,2.6-34.1,2.6c-20,0-29-7-29-22.5
	c0-16.7,11.9-24.5,41.2-27v-5.3c0-4.3-2.2-5.9-8.2-5.9c-8.8,0-18.8,2.5-28.1,7.3L127.7,42.3L127.7,42.3z M165.1,80.3
	c-15.8,1.6-20.9,4-20.9,10.2c0,4.7,2.9,6.8,9.5,6.8c3.6,0,6.8-0.3,11.5-1.1L165.1,80.3L165.1,80.3z M197.5,40.6
	c14.1-3.7,25.7-5.4,37.5-5.4c12.2,0,21.1,2.8,26.4,8.2c5,5.1,6.5,10.7,6.5,22.6v46.8H244V66.9c0-9.1-3.1-12.6-11.6-12.6
	c-3.3,0-6.2,0.3-11,1.7v56.7h-23.9V40.6z M277.1,125.8c8.4,4.3,16.7,6.4,25.6,6.4c15.7,0,22.3-6.4,22.3-21.5c0-0.2,0-0.3,0-0.5
	c-4.6,2.3-9.3,3.3-15.5,3.3c-20.9,0-34.3-13.8-34.3-35.7c0-27.1,19.7-42.5,54.6-42.5c10.2,0,19.7,1.1,31.2,3.4l-8.2,17.2
	c-6.4-1.2-0.5-0.2-5.3-0.6v2.5l0.3,10.1l0.2,13c0.2,3.3,0.2,6.5,0.3,9.8c0,2.9,0,4.3,0,6.5c0,20.5-1.7,30.1-6.8,38
	c-7.4,11.6-20.3,17.4-38.6,17.4c-9.3,0-17.4-1.4-25.7-4.7L277.1,125.8L277.1,125.8z M324.6,54.5c-0.3,0-0.6,0-0.8,0h-1.7
	c-4.6-0.2-10.1,1.1-13.8,3.4c-5.7,3.3-8.7,9.1-8.7,17.5c0,11.9,5.9,18.8,16.4,18.8c3.3,0,5.9-0.6,9-1.6V91v-6.5
	c0-2.8-0.2-5.9-0.2-9.1l-0.2-11l-0.2-7.9L324.6,54.5L324.6,54.5z M398.1,34.8c23.9,0,38.4,15,38.4,39.4c0,25-15.2,40.6-39.4,40.6
	c-23.9,0-38.6-15-38.6-39.2C358.5,50.5,373.7,34.8,398.1,34.8z M397.6,95.6c9.1,0,14.6-7.6,14.6-20.8c0-13-5.3-20.8-14.4-20.8
	c-9.5,0-14.9,7.6-14.9,20.8C382.9,88,388.3,95.6,397.6,95.6z"/>
</svg>
